/* XPM */
static char *_527682872571[] = {
/* columns rows colors chars-per-pixel */
"32 32 174 2 ",
"   c #E5063E",
".  c #E5073F",
"X  c #E50840",
"o  c #E50940",
"O  c #E50A41",
"+  c #E60B42",
"@  c #E60C43",
"#  c #E60D43",
"$  c #E60E44",
"%  c #E60F45",
"&  c #E61046",
"*  c #E61146",
"=  c #E61348",
"-  c #E61449",
";  c #E71549",
":  c #E7174B",
">  c #E7184C",
",  c #E7194C",
"<  c #E71A4D",
"1  c #E71B4E",
"2  c #E71B4F",
"3  c #E71C4F",
"4  c #E71D50",
"5  c #E81E51",
"6  c #E82052",
"7  c #E82153",
"8  c #E82254",
"9  c #E82455",
"0  c #E82556",
"q  c #E82657",
"w  c #E82758",
"e  c #E92858",
"r  c #E92959",
"t  c #E92A5A",
"y  c #E92B5B",
"u  c #E9305F",
"i  c #E9315F",
"p  c #EA3260",
"a  c #EA3462",
"s  c #EA3663",
"d  c #EA3965",
"f  c #EA3A66",
"g  c #EB3B67",
"h  c #EB3C68",
"j  c #EB3D68",
"k  c #EB3E69",
"l  c #EB3F6A",
"z  c #EB406B",
"x  c #EB416B",
"c  c #EB436D",
"v  c #EB446E",
"b  c #EC456F",
"n  c #EC4871",
"m  c #EC4972",
"M  c #EC4A73",
"N  c #EC4D75",
"B  c #ED4E76",
"V  c #ED4F77",
"C  c #ED5279",
"Z  c #ED547B",
"A  c #ED557B",
"S  c #ED577D",
"D  c #EE587E",
"F  c #EE597E",
"G  c #EE6084",
"H  c #EF6587",
"J  c #EF6688",
"K  c #EF6789",
"L  c #EF698A",
"P  c #EF6A8B",
"I  c #F06E8E",
"U  c #F06E8F",
"Y  c #F06F90",
"T  c #F07191",
"R  c #F07292",
"E  c #F17494",
"W  c #F17695",
"Q  c #F17897",
"!  c #F17A98",
"~  c #F17B99",
"^  c #F27E9B",
"/  c #F27F9C",
"(  c #F2809D",
")  c #F285A0",
"_  c #F287A2",
"`  c #F388A3",
"'  c #F38BA5",
"]  c #F38CA6",
"[  c #F38DA6",
"{  c #F391A9",
"}  c #F493AB",
"|  c #F495AC",
" . c #F497AF",
".. c #F499B0",
"X. c #F59CB3",
"o. c #F5A0B6",
"O. c #F5A1B6",
"+. c #F5A2B7",
"@. c #F6A5B9",
"#. c #F6A6BA",
"$. c #F6A7BB",
"%. c #F6ACBF",
"&. c #F7AFC1",
"*. c #F7B0C2",
"=. c #F7B1C2",
"-. c #F7B2C3",
";. c #F7B4C5",
":. c #F7B6C6",
">. c #F7B7C7",
",. c #F8B5C6",
"<. c #F8B6C7",
"1. c #F8B7C7",
"2. c #F8B8C7",
"3. c #F8B9C9",
"4. c #F8BBCB",
"5. c #F8BCCB",
"6. c #F8BDCC",
"7. c #F9BECD",
"8. c #F8BFCD",
"9. c #F9BECE",
"0. c #F9C0CF",
"q. c #F8C1CF",
"w. c #F9C1CF",
"e. c #F9C3D1",
"r. c #F9C4D2",
"t. c #F9C6D3",
"y. c #F9C7D4",
"u. c #F9CAD6",
"i. c #FACBD7",
"p. c #FACCD8",
"a. c #FACED9",
"s. c #FACFDA",
"d. c #FAD0DA",
"f. c #FAD0DB",
"g. c #FAD2DB",
"h. c #FAD2DC",
"j. c #FAD3DD",
"k. c #FAD4DD",
"l. c #FBD4DE",
"z. c #FBD5DE",
"x. c #FBD8E1",
"c. c #FBDBE3",
"v. c #FBDCE4",
"b. c #FCDFE6",
"n. c #FCE0E7",
"m. c #FCE2E8",
"M. c #FCE3E9",
"N. c #FCE4EA",
"B. c #FDE8ED",
"V. c #FCE9EF",
"C. c #FDEAEF",
"Z. c #FCEAF0",
"A. c #FDECF1",
"S. c #FDEDF1",
"D. c #FDEEF2",
"F. c #FDF0F4",
"G. c #FEF1F4",
"H. c #FEF2F5",
"J. c #FEF3F6",
"K. c #FEF4F7",
"L. c #FEF6F8",
"P. c #FEF7F9",
"I. c #FFF8F9",
"U. c #FEF8FA",
"Y. c #FFF8FA",
"T. c #FEF9FA",
"R. c #FFFAFC",
"E. c #FFFBFC",
"W. c #FFFCFC",
"Q. c #FFFCFD",
"!. c #FFFDFD",
"~. c #FFFEFE",
"^. c white",
"/. c None",
/* pixels */
"/./././././././././././././././././././././././././././././././.",
"/./././././././././././.R.j.0.$.$.0.j.!././././././././././././.",
"/././././././././.!.:.J <             < J 1.!./././././././././.",
"/./././././././.e.x                         f 6././././././././.",
"/./././././.I.U                                 R I././././././.",
"/././././.V.n                                     M Z./././././.",
"/./././.R.N                                         n I././././.",
"/./././.U         p ! ! ! ! A     D ! ! ! ! p         R /./././.",
"/././.7.        O p.!.!.!.!.R.r y I.!.!.!.!.y.          7./././.",
"/./.!.k         H !.[ r q N !.-.:.!.N q r { !.G         f !././.",
"/./.,.        = B.!.4       $.!.!.+.      7 !.B.&         1././.",
"/./.J         ' !.!.'       q !.!.8       [ !.!.)         L /./.",
"/.!.3       e I.y.i.P.q     R !.!.P X X e I.u.u.P.9       4 R./.",
"/.j.        -.!.f k !.-.  < A.b.m.A.<   :.!.f k !.%.        p./.",
"/.7.      n !.O.    $.!.b ..!.C D !.| n !.O.    $.!.v       -./.",
"/.$.    O z.J.4     7 J.b.!.6.    e.R.m.J.5     5 P.f.O     O./.",
"/.$.    : Z.m.#       ( !.R.p     p !.!.! X     # m.A.:     O./.",
"/.>.      P !./       D !.A.:     < F.!.A       ! !.U       -./.",
"/.z.      X j.J.7   # m.R.!.}     | !.R.b.X   4 J.z.X       p./.",
"/.!.4       x !.$.  ( !.P e.!.p p R.q.E !.!   +.!.M X     3 !./.",
"/./.J         %.!.S J.z.O s !.>.6.!.p X x.F.N !.-.        L /./.",
"/./.1.        q P.!.!.n     X.!.!. .    N !.R.I.e         2././.",
"/./.!.x         ` !.-.      < J.A.<     . >.!.[         k /././.",
"/././.7.        & b.e         E R         r N.:         0./././.",
"/./././.R X       5           @ O           8       X E /./././.",
"/./././.R.N                                         n I././././.",
"/././././.Z.n                                     n A./././././.",
"/./././././.P.R                                 E R././././././.",
"/./././././././.t.x                         k 7././././././././.",
"/./././././././././.3.L 4             4 L 3.!./././././././././.",
"/./././././././././././.!.p.-.O.O.-.p.!././././././././././././.",
"/./././././././././././././././././././././././././././././././."
};
