/* XPM */
static char *_527682858597[] = {
/* columns rows colors chars-per-pixel */
"16 16 87 1 ",
"  c #E5063E",
". c #E5073F",
"X c #E50A41",
"o c #E60B42",
"O c #E60C43",
"+ c #E60D43",
"@ c #E61046",
"# c #E61247",
"$ c #E61348",
"% c #E71549",
"& c #E7174B",
"* c #E7184C",
"= c #E92959",
"- c #E92A5A",
"; c #E92C5C",
": c #E92F5E",
"> c #EA3361",
", c #EA3462",
"< c #EA3663",
"1 c #EA3865",
"2 c #EA3965",
"3 c #EA3A66",
"4 c #EB3C68",
"5 c #EC4871",
"6 c #EC4972",
"7 c #EC4A73",
"8 c #EC4B73",
"9 c #EC4B74",
"0 c #EE5C81",
"q c #EE5E82",
"w c #EE5F83",
"e c #EF6285",
"r c #EF6688",
"t c #EF6789",
"y c #EF678A",
"u c #EF688B",
"i c #EF698B",
"p c #EF6A8C",
"a c #F07090",
"s c #F07393",
"d c #F2829E",
"f c #F285A0",
"g c #F287A2",
"h c #F38CA6",
"j c #F38EA7",
"k c #F497AF",
"l c #F499B0",
"z c #F49AB1",
"x c #F59BB2",
"c c #F59CB3",
"v c #F59FB5",
"b c #F5A2B7",
"n c #F5A3B8",
"m c #F5A4B8",
"M c #F5A5B9",
"N c #F5A6B9",
"B c #F7A7BB",
"V c #F5A8BB",
"C c #F7A8BB",
"Z c #F5AABD",
"A c #F6ACBF",
"S c #F7AEC0",
"D c #F7AFC1",
"F c #F7B2C3",
"G c #F7B3C4",
"H c #F7B4C5",
"J c #F7B5C5",
"K c #F7B6C6",
"L c #F8B8C9",
"P c #F8BAC8",
"I c #F8BAC9",
"U c #F8BCCA",
"Y c #F8BCCB",
"T c #F9C2D0",
"R c #F9C3D1",
"E c #F9C4D2",
"W c #F9C5D2",
"Q c #F9CAD6",
"! c #FACED9",
"~ c #FACFDA",
"^ c #FAD0DB",
"/ c #FAD2DC",
"( c #FBD4DE",
") c #FEF8FA",
"_ c #FEFAFB",
"` c #FFFBFC",
"' c None",
/* pixels */
"'''''''IL'''''''",
"''''m6o  o6m''''",
"'''r        r'''",
"''r @11**11@ p''",
"'Z  jFmHJnGh  m'",
"'6 -); FD.;)- 9'",
"'o HdGo^~oJdF O'",
"I 9A DDdgAA A6 U",
"U qc.1`$*`< lq U",
"'o T<zQasQk>R O'",
"'6 1^W$((@W^1 8'",
"'C  c1 ee 4v. m'",
"''r O  ..  O p''",
"'''p        p'''",
"''''C8O  O8C''''",
"'''''''II'''''''"
};
